<?xml version="1.0" encoding="utf-8"?>
<!-- Generator: Adobe Illustrator 16.0.0, SVG Export Plug-In . SVG Version: 6.00 Build 0)  -->
<!DOCTYPE svg PUBLIC "-//W3C//DTD SVG 1.1//EN" "http://www.w3.org/Graphics/SVG/1.1/DTD/svg11.dtd">
<svg version="1.1" id="Layer_1" xmlns="http://www.w3.org/2000/svg" xmlns:xlink="http://www.w3.org/1999/xlink" x="0px" y="0px"
	 width="72px" height="72px" viewBox="0 0 72 72" enable-background="new 0 0 72 72" xml:space="preserve">
<g>
	<g>
		<path fill="#88C32F" stroke="#88C32F" stroke-miterlimit="10" d="M26.731,15.408c-2.193,3.908-6.948,5.159-10.617,2.791
			c-3.671-2.367-4.869-7.453-2.676-11.361c2.193-3.909,6.947-5.159,10.617-2.792C27.727,6.414,28.924,11.5,26.731,15.408z"/>
		<path fill="#88C32F" stroke="#88C32F" stroke-miterlimit="10" d="M15.129,36.026c-2.201,3.921-6.948,5.188-10.607,2.829
			c-3.658-2.358-4.839-7.449-2.639-11.37c2.199-3.921,6.95-5.188,10.607-2.829C16.148,27.015,17.329,32.105,15.129,36.026z"/>
		<path fill="#88C32F" stroke="#88C32F" stroke-miterlimit="10" d="M36.253,49.647c-2.194,3.908-6.947,5.158-10.617,2.791
			c-3.671-2.367-4.869-7.454-2.675-11.362c2.192-3.908,6.946-5.158,10.617-2.792C37.249,40.651,38.446,45.739,36.253,49.647z"/>
		<polygon fill="#88C32F" stroke="#88C32F" stroke-miterlimit="10" points="12.726,29.047 8.979,26.631 16.466,13.289 
			20.213,15.705 		"/>
		<polygon fill="#88C32F" stroke="#88C32F" stroke-miterlimit="10" points="24.207,45.467 11.789,37.46 14.029,33.466 
			26.447,41.474 		"/>
	</g>
	<g>
		<path fill="#003F60" stroke="#003F60" stroke-miterlimit="10" d="M28.319,57.752c2.209-3.897,6.969-5.124,10.63-2.739
			c3.66,2.384,4.836,7.477,2.626,11.375c-2.209,3.897-6.968,5.124-10.629,2.738C27.286,66.742,26.11,61.65,28.319,57.752z"/>
		<path fill="#003F60" stroke="#003F60" stroke-miterlimit="10" d="M40.008,37.191c2.217-3.91,6.972-5.153,10.619-2.777
			c3.647,2.377,4.807,7.473,2.591,11.383c-2.218,3.91-6.971,5.154-10.619,2.778C38.951,46.197,37.792,41.101,40.008,37.191z"/>
		<path fill="#003F60" stroke="#003F60" stroke-miterlimit="10" d="M18.943,23.468c2.21-3.898,6.969-5.124,10.629-2.741
			c3.66,2.386,4.836,7.479,2.626,11.375c-2.21,3.898-6.968,5.124-10.629,2.74C17.909,32.458,16.733,27.365,18.943,23.468z"/>
		<polygon fill="#003F60" stroke="#003F60" stroke-miterlimit="10" points="42.382,44.183 46.119,46.617 38.576,59.922 
			34.839,57.487 		"/>
		<polygon fill="#003F60" stroke="#003F60" stroke-miterlimit="10" points="30.971,27.707 43.355,35.773 41.096,39.756 
			28.713,31.688 		"/>
	</g>
	<g>
		<path fill="#01A7E2" stroke="#01A7E2" stroke-miterlimit="10" d="M45.101,53.653c2.209-3.898,6.968-5.124,10.629-2.74
			c3.66,2.385,4.836,7.478,2.626,11.376c-2.209,3.897-6.968,5.123-10.629,2.739C44.067,62.642,42.891,57.55,45.101,53.653z"/>
		<path fill="#01A7E2" stroke="#01A7E2" stroke-miterlimit="10" d="M56.791,33.091c2.216-3.911,6.971-5.153,10.619-2.777
			c3.647,2.376,4.807,7.472,2.59,11.382c-2.217,3.91-6.971,5.153-10.619,2.777C55.733,42.098,54.574,37.001,56.791,33.091z"/>
		<path fill="#01A7E2" stroke="#01A7E2" stroke-miterlimit="10" d="M35.724,19.368c2.21-3.897,6.969-5.125,10.629-2.739
			c3.661,2.384,4.837,7.477,2.626,11.375c-2.208,3.898-6.968,5.124-10.628,2.738C34.69,28.358,33.514,23.266,35.724,19.368z"/>
		<polygon fill="#01A7E2" stroke="#01A7E2" stroke-miterlimit="10" points="59.165,40.083 62.901,42.517 55.356,55.823 
			51.62,53.388 		"/>
		<polygon fill="#01A7E2" stroke="#01A7E2" stroke-miterlimit="10" points="47.752,23.606 60.137,31.674 57.878,35.657 
			45.495,27.588 		"/>
	</g>
</g>
</svg>
